<svg xmlns="http://www.w3.org/2000/svg" xmlns:xlink="http://www.w3.org/1999/xlink" width="800" zoomAndPan="magnify" viewBox="0 0 600 225" height="300" preserveAspectRatio="xMidYMid meet" version="1.0"><defs><clipPath id="e60d785eb3"><path d="M 141.894531 68 L 183 68 L 183 136 L 141.894531 136 Z M 141.894531 68 " clip-rule="nonzero"/></clipPath><clipPath id="03f1a648ab"><path d="M 229 89 L 268 89 L 268 154.527344 L 229 154.527344 Z M 229 89 " clip-rule="nonzero"/></clipPath><clipPath id="125e77352c"><path d="M 2 52.640625 L 114 52.640625 L 114 168.890625 L 2 168.890625 Z M 2 52.640625 " clip-rule="nonzero"/></clipPath></defs><g clip-path="url(#e60d785eb3)"><path fill="#ffffff" d="M 149.304688 72.5 C 146.746094 74.789062 143.914062 78.964844 143.105469 81.660156 C 140.949219 88.9375 142.027344 121.8125 144.589844 126.796875 C 147.550781 132.589844 153.078125 136.226562 157.253906 135.148438 C 161.699219 134.070312 162.777344 130.03125 162.644531 116.554688 L 162.507812 106.316406 L 166.414062 105.507812 C 175.039062 103.757812 182.3125 95.539062 182.3125 87.453125 C 182.3125 85.296875 180.96875 81.527344 179.214844 78.964844 C 171.535156 67.648438 158.195312 64.683594 149.304688 72.5 Z M 165.066406 82.738281 C 168.03125 85.433594 168.167969 88.398438 165.335938 92.304688 C 161.160156 98.367188 155.773438 90.550781 158.871094 82.601562 C 159.949219 79.910156 161.96875 79.910156 165.066406 82.738281 Z M 165.066406 82.738281 " fill-opacity="1" fill-rule="nonzero"/></g><path fill="#ffffff" d="M 323.382812 70.746094 C 319.472656 75.058594 317.316406 102.003906 319.339844 122.621094 C 320.011719 130.164062 320.6875 132.1875 323.113281 133.800781 C 326.75 136.09375 332.273438 134.476562 333.757812 130.703125 C 334.292969 129.355469 335.238281 123.429688 335.910156 117.632812 C 337.257812 106.316406 338.203125 104.160156 341.03125 105.914062 C 343.726562 107.527344 345.207031 115.882812 344.398438 124.640625 C 343.589844 133.9375 345.074219 135.957031 352.078125 134.476562 C 356.257812 133.667969 356.929688 132.992188 357.738281 128.277344 C 360.164062 114.132812 357.875 95.671875 353.15625 90.957031 C 351 88.800781 349.117188 88.398438 343.996094 88.800781 L 337.527344 89.476562 L 336.855469 81.792969 C 336.449219 77.484375 335.507812 72.769531 334.699219 71.152344 C 332.8125 67.648438 326.480469 67.378906 323.382812 70.746094 Z M 323.382812 70.746094 " fill-opacity="1" fill-rule="nonzero"/><path fill="#ffffff" d="M 378.757812 71.015625 C 369.191406 76.136719 365.148438 85.835938 365.148438 103.351562 C 365.148438 117.632812 367.035156 123.429688 373.636719 129.492188 C 380.238281 135.417969 386.570312 136.765625 394.519531 133.667969 C 406.109375 129.355469 413.25 116.691406 413.25 100.65625 C 413.382812 88.128906 409.34375 79.371094 400.71875 72.632812 C 393.847656 67.511719 386.570312 66.972656 378.757812 71.015625 Z M 395.597656 93.246094 C 396.8125 100.386719 395.058594 113.054688 392.367188 116.285156 C 388.1875 121.273438 380.375 114.535156 380.375 106.046875 C 380.375 96.210938 386.570312 85.296875 391.691406 86.105469 C 393.847656 86.375 394.65625 87.992188 395.597656 93.246094 Z M 395.597656 93.246094 " fill-opacity="1" fill-rule="nonzero"/><path fill="#ffffff" d="M 469.972656 71.015625 C 467.953125 73.171875 467.683594 75.191406 468.492188 84.757812 C 468.894531 90.957031 468.894531 100.792969 468.222656 106.722656 C 467.277344 117.902344 468.222656 131.109375 470.242188 133.128906 C 470.914062 133.800781 473.339844 134.609375 475.632812 135.148438 C 478.863281 135.824219 480.480469 135.285156 482.773438 132.992188 C 485.738281 130.03125 485.738281 129.761719 484.792969 103.621094 C 483.851562 77.753906 482.90625 71.421875 479.671875 69.398438 C 476.84375 67.511719 472.398438 68.320312 469.972656 71.015625 Z M 469.972656 71.015625 " fill-opacity="1" fill-rule="nonzero"/><path fill="#ffffff" d="M 494.898438 75.730469 C 492.472656 78.695312 494.496094 82.871094 498.941406 83.816406 C 503.925781 84.894531 505.675781 83.816406 505.675781 79.910156 C 505.675781 74.25 498.535156 71.421875 494.898438 75.730469 Z M 494.898438 75.730469 " fill-opacity="1" fill-rule="nonzero"/><path fill="#ffffff" d="M 574.929688 88.667969 C 561.726562 92.4375 555.664062 114.941406 564.285156 127.335938 C 567.25 131.511719 576.007812 135.6875 581.9375 135.6875 C 587.867188 135.6875 595.546875 132.1875 597.429688 128.683594 C 599.183594 125.449219 597.835938 121.273438 594.46875 119.386719 C 592.3125 118.308594 590.964844 118.710938 587.730469 121.40625 C 585.441406 123.292969 582.609375 124.910156 581.261719 124.910156 C 577.355469 124.910156 572.910156 120.867188 573.3125 117.769531 C 573.71875 115.074219 574.796875 114.804688 584.632812 114.132812 C 597.429688 113.324219 599.992188 111.707031 599.992188 104.699219 C 599.992188 93.785156 586.519531 85.164062 574.929688 88.667969 Z M 587.597656 99.578125 C 590.558594 102.542969 589.210938 104.429688 583.6875 105.375 C 579.511719 106.046875 577.625 105.777344 576.007812 104.296875 C 574.257812 102.542969 574.257812 101.734375 575.738281 100.117188 C 577.761719 97.558594 585.304688 97.289062 587.597656 99.578125 Z M 587.597656 99.578125 " fill-opacity="1" fill-rule="nonzero"/><path fill="#ffffff" d="M 198.480469 90.015625 C 190.53125 93.246094 185.953125 101.601562 189.050781 107.257812 C 189.859375 108.742188 193.765625 111.570312 197.675781 113.457031 C 206.164062 117.5 208.992188 120.328125 206.835938 122.484375 C 205.894531 123.429688 204.546875 123.292969 202.390625 121.675781 C 195.382812 116.824219 187.433594 120.464844 189.859375 127.335938 C 192.417969 134.878906 207.238281 138.25 215.59375 133.128906 C 224.082031 127.875 222.601562 118.578125 211.550781 108.472656 C 204.816406 102.140625 203.601562 99.039062 208.992188 101.871094 C 218.289062 106.855469 227.585938 97.425781 220.308594 90.820312 C 217.480469 88.261719 204.140625 87.722656 198.480469 90.015625 Z M 198.480469 90.015625 " fill-opacity="1" fill-rule="nonzero"/><path fill="#ffffff" d="M 281.480469 93.113281 C 276.761719 97.964844 273.933594 105.644531 273.933594 113.054688 C 273.933594 119.386719 279.1875 129.085938 284.578125 132.589844 C 296.433594 140.539062 316.375 131.648438 309.773438 121.542969 C 307.347656 117.902344 302.496094 117.09375 296.164062 119.519531 C 289.292969 122.082031 284.308594 111.976562 290.101562 106.722656 C 292.257812 104.835938 294.007812 104.566406 299.9375 105.238281 C 305.867188 106.046875 307.484375 105.777344 309.234375 103.757812 C 313.277344 99.175781 313.410156 95.539062 309.773438 91.898438 C 306.808594 88.9375 305.328125 88.53125 296.03125 88.53125 C 286.058594 88.53125 285.519531 88.667969 281.480469 93.113281 Z M 281.480469 93.113281 " fill-opacity="1" fill-rule="nonzero"/><path fill="#ffffff" d="M 422.816406 91.226562 C 420.660156 93.515625 420.390625 96.210938 420.660156 111.707031 C 420.792969 124.910156 421.332031 130.300781 422.949219 132.589844 C 425.375 136.363281 428.878906 136.496094 433.054688 133.128906 C 436.152344 130.703125 436.289062 129.761719 435.882812 117.5 L 435.617188 104.566406 L 439.925781 104.96875 C 445.316406 105.507812 446.796875 109.820312 445.855469 122.082031 C 445.046875 132.1875 446.394531 135.6875 451.515625 135.6875 C 458.65625 135.6875 459.195312 134.476562 459.195312 117.230469 C 459.195312 92.035156 456.230469 88.53125 434.808594 88.53125 C 426.992188 88.53125 424.835938 89.070312 422.816406 91.226562 Z M 422.816406 91.226562 " fill-opacity="1" fill-rule="nonzero"/><path fill="#ffffff" d="M 495.300781 92.167969 C 491.800781 97.425781 491.800781 126.796875 495.300781 132.050781 C 496.515625 134.070312 498.804688 135.6875 500.152344 135.6875 C 505.273438 135.6875 506.351562 132.050781 506.753906 112.648438 C 507.292969 95.402344 507.160156 94.054688 504.464844 91.359375 C 500.691406 87.589844 498.132812 87.859375 495.300781 92.167969 Z M 495.300781 92.167969 " fill-opacity="1" fill-rule="nonzero"/><path fill="#ffffff" d="M 517.667969 91.359375 C 514.972656 94.054688 514.839844 95.402344 515.378906 112.648438 C 515.78125 133.800781 516.859375 136.496094 523.730469 135.148438 C 530.199219 133.800781 531.277344 131.242188 531.277344 117.230469 C 531.277344 104.835938 531.277344 104.699219 534.511719 104.699219 C 536.398438 104.699219 538.28125 105.507812 538.957031 106.316406 C 539.496094 107.257812 540.304688 114.132812 540.707031 121.542969 L 541.382812 135.015625 L 545.558594 135.417969 C 547.984375 135.6875 550.679688 135.015625 551.757812 133.800781 C 554.453125 131.109375 555.933594 115.210938 554.316406 106.453125 C 551.351562 91.359375 547.445312 88.53125 529.660156 88.53125 C 522.113281 88.53125 519.960938 89.070312 517.667969 91.359375 Z M 517.667969 91.359375 " fill-opacity="1" fill-rule="nonzero"/><g clip-path="url(#03f1a648ab)"><path fill="#ffffff" d="M 232.703125 92.707031 C 230.953125 94.59375 230.011719 98.097656 229.742188 104.429688 C 228.796875 121.003906 233.917969 131.378906 244.425781 134.070312 C 247.527344 134.878906 250.894531 135.148438 251.835938 134.746094 C 253.183594 134.207031 253.722656 135.148438 253.722656 137.574219 C 253.722656 142.425781 249.679688 144.3125 243.078125 142.289062 C 239.171875 141.210938 237.285156 141.210938 234.996094 142.289062 C 231.222656 144.445312 231.359375 147.277344 235.667969 151.183594 C 242.945312 157.921875 256.285156 154.417969 263.828125 143.90625 L 267.871094 138.113281 L 267.871094 116.824219 C 267.871094 97.828125 267.601562 95.269531 265.3125 92.707031 C 263.828125 91.089844 261.402344 89.878906 259.652344 89.878906 C 254.53125 89.878906 253.320312 94.191406 254.398438 108.203125 C 255.476562 122.082031 254.667969 123.429688 247.660156 121.675781 C 244.292969 120.867188 244.292969 120.597656 244.292969 106.722656 C 244.292969 94.191406 244.023438 92.574219 241.730469 91.226562 C 237.824219 89.207031 235.535156 89.609375 232.703125 92.707031 Z M 232.703125 92.707031 " fill-opacity="1" fill-rule="nonzero"/></g><path fill="#ffffff" d="M 58.863281 83.476562 C 58.863281 84.261719 59.488281 84.898438 60.273438 84.898438 L 62.496094 84.898438 L 62.496094 86.074219 C 62.496094 86.859375 63.140625 87.503906 63.90625 87.503906 C 64.707031 87.503906 65.34375 86.859375 65.34375 86.074219 L 65.34375 80.542969 C 65.34375 79.339844 65.550781 78.5 65.933594 78.125 C 66.363281 77.675781 67.277344 77.675781 68.242188 77.707031 L 74.136719 77.707031 C 74.9375 77.707031 75.554688 77.066406 75.554688 76.277344 C 75.554688 75.507812 74.9375 74.863281 74.136719 74.863281 L 68.25 74.863281 C 66.894531 74.851562 65.191406 74.839844 63.933594 76.101562 C 62.964844 77.054688 62.496094 78.5 62.496094 80.542969 L 62.496094 82.046875 L 60.273438 82.046875 C 59.488281 82.046875 58.863281 82.695312 58.863281 83.476562 Z M 58.863281 83.476562 " fill-opacity="1" fill-rule="nonzero"/><path fill="#ffffff" d="M 54.96875 72.167969 L 57.351562 72.167969 L 57.351562 74.199219 C 57.351562 74.972656 57.984375 75.621094 58.777344 75.621094 C 59.546875 75.621094 60.179688 74.972656 60.179688 74.199219 L 60.179688 67.757812 C 60.179688 66.976562 59.546875 66.335938 58.777344 66.335938 C 57.984375 66.335938 57.351562 66.976562 57.351562 67.757812 L 57.351562 69.320312 L 54.96875 69.320312 C 54.199219 69.320312 53.5625 69.96875 53.5625 70.738281 C 53.5625 71.53125 54.199219 72.167969 54.96875 72.167969 Z M 54.96875 72.167969 " fill-opacity="1" fill-rule="nonzero"/><path fill="#ffffff" d="M 61.582031 92.453125 C 61.339844 92.453125 61.132812 92.453125 60.933594 92.453125 L 49.476562 92.453125 C 47.683594 92.453125 46.378906 92.058594 45.640625 91.273438 C 44.433594 89.996094 44.527344 87.746094 44.617188 85.914062 C 44.636719 85.476562 44.652344 85.0625 44.652344 84.703125 C 44.652344 83.910156 44.027344 83.28125 43.253906 83.28125 C 42.453125 83.28125 41.816406 83.910156 41.816406 84.703125 C 41.816406 85.019531 41.800781 85.398438 41.78125 85.796875 C 41.679688 87.898438 41.535156 91.074219 43.5625 93.21875 C 44.878906 94.601562 46.863281 95.292969 49.476562 95.292969 L 60.933594 95.292969 C 61.140625 95.292969 61.378906 95.292969 61.628906 95.292969 C 63.566406 95.265625 66.503906 95.222656 68.066406 96.753906 C 68.882812 97.550781 69.269531 98.71875 69.269531 100.324219 C 69.269531 101.097656 69.914062 101.746094 70.6875 101.746094 C 71.484375 101.746094 72.105469 101.097656 72.105469 100.324219 C 72.105469 97.957031 71.417969 96.074219 70.0625 94.738281 C 67.644531 92.355469 63.84375 92.417969 61.582031 92.453125 Z M 61.582031 92.453125 " fill-opacity="1" fill-rule="nonzero"/><path fill="#ffffff" d="M 71.8125 84.558594 C 71.046875 84.558594 70.398438 85.203125 70.398438 85.984375 C 70.398438 86.769531 71.046875 87.410156 71.8125 87.410156 L 75.320312 87.410156 L 75.320312 89.996094 C 75.320312 90.789062 75.945312 91.421875 76.753906 91.421875 C 77.53125 91.421875 78.15625 90.789062 78.15625 89.996094 L 78.15625 87.410156 L 81.761719 87.410156 C 82.546875 87.410156 83.1875 86.769531 83.1875 85.984375 C 83.1875 85.203125 82.546875 84.558594 81.761719 84.558594 Z M 71.8125 84.558594 " fill-opacity="1" fill-rule="nonzero"/><path fill="#ffffff" d="M 33.765625 73.636719 L 37.363281 73.636719 C 38.15625 73.636719 38.789062 73 38.789062 72.203125 C 38.789062 71.425781 38.15625 70.796875 37.363281 70.796875 L 33.765625 70.796875 C 32.996094 70.796875 32.363281 71.425781 32.363281 72.203125 C 32.363281 73 32.996094 73.636719 33.765625 73.636719 Z M 33.765625 73.636719 " fill-opacity="1" fill-rule="nonzero"/><g clip-path="url(#125e77352c)"><path fill="#ffffff" d="M 113.414062 128.878906 L 102.957031 99.308594 C 101.136719 73.234375 79.421875 52.640625 52.882812 52.640625 C 25.148438 52.640625 2.667969 75.121094 2.667969 102.855469 L 2.667969 118.675781 C 2.667969 146.410156 25.148438 168.890625 52.882812 168.890625 C 75.71875 168.890625 94.980469 153.644531 101.078125 132.777344 L 110.65625 132.777344 C 111.605469 132.777344 112.496094 132.316406 113.042969 131.539062 C 113.589844 130.765625 113.730469 129.773438 113.414062 128.878906 Z M 74.660156 101.363281 C 75.230469 104.578125 74.09375 109.792969 63.976562 109.792969 C 59.128906 109.792969 52.308594 109.792969 49.960938 109.792969 C 49.960938 117.453125 38.402344 115.65625 34.34375 115.65625 C 30.277344 115.65625 29.613281 111.296875 30.355469 110.164062 C 17.675781 110.070312 15.890625 96.828125 19.003906 91.050781 C 20.335938 75.335938 36.234375 64.167969 52.050781 64.167969 C 72.859375 64.167969 71.484375 70.980469 73.800781 71.175781 C 79.484375 71.632812 87.246094 78.273438 87.246094 86.027344 C 87.25 93.792969 84.027344 101.363281 74.660156 101.363281 Z M 74.660156 101.363281 " fill-opacity="1" fill-rule="nonzero"/></g><path fill="#ffffff" d="M 24.671875 90.023438 L 31.976562 90.023438 C 33.277344 90.023438 34.070312 89.5 34.5 89.058594 C 35.601562 87.941406 35.59375 86.296875 35.566406 85.316406 L 35.566406 80.355469 C 35.566406 79.636719 35.707031 79.101562 35.953125 78.863281 C 36.34375 78.488281 37.265625 78.519531 38.015625 78.554688 C 38.226562 78.554688 38.417969 78.570312 38.597656 78.570312 L 47.890625 78.570312 C 47.890625 78.570312 47.90625 78.554688 47.9375 78.554688 C 49.117188 78.554688 50.796875 78.554688 51.246094 78.996094 C 51.277344 79.03125 51.378906 79.109375 51.378906 79.46875 L 51.378906 87.210938 C 51.378906 88.003906 52.027344 88.640625 52.796875 88.640625 C 53.578125 88.640625 54.214844 88.003906 54.214844 87.210938 L 54.214844 79.46875 C 54.214844 78.210938 53.675781 77.421875 53.246094 76.984375 C 51.925781 75.6875 49.703125 75.695312 47.773438 75.71875 C 47.523438 75.71875 47.289062 75.71875 47.074219 75.71875 C 46.328125 75.71875 46.132812 75.59375 46.132812 75.59375 C 46.0625 75.457031 46.0625 74.933594 46.0625 74.601562 L 46.0625 70.457031 C 46.0625 69.679688 45.441406 69.039062 44.652344 69.039062 C 43.878906 69.039062 43.242188 69.679688 43.242188 70.457031 L 43.242188 74.578125 C 43.226562 74.933594 43.226562 75.328125 43.28125 75.71875 L 38.597656 75.71875 C 38.453125 75.71875 38.296875 75.710938 38.113281 75.710938 C 36.972656 75.664062 35.25 75.613281 33.984375 76.828125 C 33.160156 77.625 32.730469 78.8125 32.730469 80.355469 L 32.730469 85.34375 C 32.730469 85.808594 32.746094 86.785156 32.484375 87.054688 C 32.363281 87.164062 32.078125 87.175781 31.976562 87.175781 L 24.671875 87.175781 C 23.910156 87.175781 23.277344 87.820312 23.277344 88.597656 C 23.277344 89.390625 23.910156 90.023438 24.671875 90.023438 Z M 24.671875 90.023438 " fill-opacity="1" fill-rule="nonzero"/><path fill="#ffffff" d="M 26.867188 103.734375 L 23.277344 103.734375 C 22.480469 103.734375 21.839844 104.359375 21.839844 105.144531 C 21.839844 105.933594 22.480469 106.554688 23.277344 106.554688 L 26.867188 106.554688 C 27.660156 106.554688 28.292969 105.933594 28.292969 105.144531 C 28.292969 104.359375 27.660156 103.734375 26.867188 103.734375 Z M 26.867188 103.734375 " fill-opacity="1" fill-rule="nonzero"/><path fill="#ffffff" d="M 61.699219 100.027344 L 43.71875 100.027344 C 42.925781 100.027344 42.304688 100.679688 42.304688 101.449219 C 42.304688 102.234375 42.925781 102.871094 43.71875 102.871094 L 53.371094 102.871094 L 53.371094 105.703125 C 53.371094 106.5 54.003906 107.125 54.785156 107.125 C 55.570312 107.125 56.199219 106.5 56.199219 105.703125 L 56.199219 102.871094 L 61.699219 102.871094 C 62.472656 102.871094 63.121094 102.234375 63.121094 101.449219 C 63.121094 100.679688 62.472656 100.027344 61.699219 100.027344 Z M 61.699219 100.027344 " fill-opacity="1" fill-rule="nonzero"/><path fill="#ffffff" d="M 38.558594 96.300781 C 38.558594 95.515625 37.917969 94.875 37.136719 94.875 L 27.210938 94.875 C 26.40625 94.875 25.777344 95.515625 25.777344 96.300781 C 25.777344 97.085938 26.40625 97.710938 27.210938 97.710938 L 27.722656 97.710938 L 27.722656 100.027344 C 27.722656 100.828125 28.359375 101.449219 29.140625 101.449219 C 29.925781 101.449219 30.566406 100.828125 30.566406 100.027344 L 30.566406 97.710938 L 37.136719 97.710938 C 37.917969 97.710938 38.558594 97.085938 38.558594 96.300781 Z M 38.558594 96.300781 " fill-opacity="1" fill-rule="nonzero"/><path fill="#ffffff" d="M 42.671875 107.039062 L 37.75 107.039062 L 37.75 104.398438 C 37.75 103.59375 37.117188 102.976562 36.332031 102.976562 C 35.539062 102.976562 34.917969 103.59375 34.917969 104.398438 L 34.917969 107.039062 L 34.246094 107.039062 C 33.46875 107.039062 32.828125 107.675781 32.828125 108.464844 C 32.828125 109.246094 33.46875 109.875 34.246094 109.875 L 42.671875 109.875 C 43.453125 109.875 44.089844 109.246094 44.089844 108.464844 C 44.089844 107.675781 43.453125 107.039062 42.671875 107.039062 Z M 42.671875 107.039062 " fill-opacity="1" fill-rule="nonzero"/></svg>