<svg xmlns="http://www.w3.org/2000/svg" xmlns:xlink="http://www.w3.org/1999/xlink" width="800" zoomAndPan="magnify" viewBox="0 0 600 225" height="300" preserveAspectRatio="xMidYMid meet" version="1.0"><defs><clipPath id="f2f91c17f4"><path d="M 141.894531 68 L 183 68 L 183 136 L 141.894531 136 Z M 141.894531 68 " clip-rule="nonzero"/></clipPath><clipPath id="ff69bfa77b"><path d="M 229 89 L 268 89 L 268 154.527344 L 229 154.527344 Z M 229 89 " clip-rule="nonzero"/></clipPath><clipPath id="0fd76077b4"><path d="M 2 52.640625 L 114 52.640625 L 114 168.890625 L 2 168.890625 Z M 2 52.640625 " clip-rule="nonzero"/></clipPath></defs><g clip-path="url(#f2f91c17f4)"><path fill="#000000" d="M 149.308594 72.484375 C 146.746094 74.769531 143.914062 78.933594 143.105469 81.621094 C 140.949219 88.878906 142.027344 121.671875 144.589844 126.644531 C 147.554688 132.421875 153.082031 136.050781 157.257812 134.976562 C 161.707031 133.902344 162.785156 129.871094 162.648438 116.429688 L 162.515625 106.214844 L 166.421875 105.410156 C 175.050781 103.664062 182.328125 95.464844 182.328125 87.402344 C 182.328125 85.25 180.980469 81.488281 179.226562 78.933594 C 171.546875 67.644531 158.203125 64.6875 149.308594 72.484375 Z M 165.074219 82.699219 C 168.042969 85.386719 168.175781 88.34375 165.34375 92.238281 C 161.167969 98.289062 155.777344 90.492188 158.875 82.5625 C 159.953125 79.875 161.976562 79.875 165.074219 82.699219 Z M 165.074219 82.699219 " fill-opacity="1" fill-rule="nonzero"/></g><path fill="#000000" d="M 323.441406 70.738281 C 319.53125 75.039062 317.375 101.914062 319.398438 122.476562 C 320.070312 130.003906 320.746094 132.019531 323.171875 133.632812 C 326.8125 135.917969 332.335938 134.304688 333.820312 130.542969 C 334.359375 129.199219 335.300781 123.285156 335.976562 117.503906 C 337.324219 106.214844 338.265625 104.066406 341.097656 105.8125 C 343.792969 107.425781 345.277344 115.757812 344.46875 124.492188 C 343.660156 133.765625 345.140625 135.78125 352.148438 134.304688 C 356.328125 133.5 357 132.828125 357.808594 128.121094 C 360.238281 114.011719 357.945312 95.597656 353.226562 90.894531 C 351.070312 88.746094 349.183594 88.34375 344.0625 88.746094 L 337.59375 89.417969 L 336.917969 81.757812 C 336.515625 77.457031 335.570312 72.753906 334.761719 71.140625 C 332.875 67.644531 326.542969 67.375 323.441406 70.738281 Z M 323.441406 70.738281 " fill-opacity="1" fill-rule="nonzero"/><path fill="#000000" d="M 378.835938 71.003906 C 369.265625 76.113281 365.222656 85.789062 365.222656 103.261719 C 365.222656 117.503906 367.109375 123.285156 373.714844 129.332031 C 380.320312 135.246094 386.652344 136.589844 394.605469 133.5 C 406.195312 129.199219 413.339844 116.566406 413.339844 100.570312 C 413.472656 88.074219 409.429688 79.335938 400.804688 72.617188 C 393.929688 67.511719 386.652344 66.972656 378.835938 71.003906 Z M 395.683594 93.179688 C 396.898438 100.304688 395.144531 112.9375 392.449219 116.160156 C 388.269531 121.132812 380.453125 114.414062 380.453125 105.949219 C 380.453125 96.136719 386.652344 85.25 391.773438 86.058594 C 393.929688 86.328125 394.738281 87.9375 395.683594 93.179688 Z M 395.683594 93.179688 " fill-opacity="1" fill-rule="nonzero"/><path fill="#000000" d="M 470.082031 71.003906 C 468.058594 73.15625 467.789062 75.171875 468.597656 84.714844 C 469.003906 90.894531 469.003906 100.707031 468.328125 106.621094 C 467.386719 117.773438 468.328125 130.945312 470.351562 132.960938 C 471.023438 133.632812 473.453125 134.4375 475.742188 134.976562 C 478.976562 135.648438 480.59375 135.109375 482.886719 132.828125 C 485.851562 129.871094 485.851562 129.601562 484.90625 103.527344 C 483.964844 77.726562 483.019531 71.410156 479.785156 69.394531 C 476.957031 67.511719 472.507812 68.316406 470.082031 71.003906 Z M 470.082031 71.003906 " fill-opacity="1" fill-rule="nonzero"/><path fill="#000000" d="M 495.015625 75.710938 C 492.589844 78.664062 494.613281 82.832031 499.058594 83.773438 C 504.046875 84.847656 505.796875 83.773438 505.796875 79.875 C 505.796875 74.230469 498.65625 71.410156 495.015625 75.710938 Z M 495.015625 75.710938 " fill-opacity="1" fill-rule="nonzero"/><path fill="#000000" d="M 575.074219 88.609375 C 561.867188 92.375 555.800781 114.816406 564.425781 127.183594 C 567.390625 131.347656 576.152344 135.515625 582.082031 135.515625 C 588.015625 135.515625 595.695312 132.019531 597.582031 128.527344 C 599.335938 125.300781 597.988281 121.132812 594.617188 119.253906 C 592.460938 118.175781 591.113281 118.582031 587.878906 121.269531 C 585.585938 123.148438 582.757812 124.761719 581.410156 124.761719 C 577.5 124.761719 573.054688 120.730469 573.457031 117.640625 C 573.863281 114.953125 574.941406 114.683594 584.777344 114.011719 C 597.582031 113.203125 600.144531 111.59375 600.144531 104.605469 C 600.144531 93.71875 586.664062 85.117188 575.074219 88.609375 Z M 587.742188 99.496094 C 590.710938 102.453125 589.363281 104.335938 583.835938 105.277344 C 579.65625 105.949219 577.769531 105.679688 576.152344 104.199219 C 574.402344 102.453125 574.402344 101.648438 575.882812 100.035156 C 577.90625 97.480469 585.453125 97.210938 587.742188 99.496094 Z M 587.742188 99.496094 " fill-opacity="1" fill-rule="nonzero"/><path fill="#000000" d="M 198.5 89.953125 C 190.550781 93.179688 185.964844 101.511719 189.066406 107.15625 C 189.875 108.636719 193.785156 111.457031 197.691406 113.339844 C 206.183594 117.371094 209.015625 120.195312 206.859375 122.34375 C 205.914062 123.285156 204.566406 123.148438 202.410156 121.539062 C 195.402344 116.699219 187.449219 120.328125 189.875 127.183594 C 192.4375 134.707031 207.261719 138.066406 215.617188 132.960938 C 224.109375 127.71875 222.625 118.445312 211.574219 108.367188 C 204.835938 102.050781 203.621094 98.960938 209.015625 101.78125 C 218.3125 106.753906 227.613281 97.347656 220.335938 90.761719 C 217.503906 88.207031 204.160156 87.671875 198.5 89.953125 Z M 198.5 89.953125 " fill-opacity="1" fill-rule="nonzero"/><path fill="#000000" d="M 281.523438 93.046875 C 276.808594 97.882812 273.976562 105.542969 273.976562 112.9375 C 273.976562 119.253906 279.234375 128.929688 284.625 132.421875 C 296.484375 140.351562 316.433594 131.484375 309.828125 121.402344 C 307.402344 117.773438 302.550781 116.96875 296.214844 119.386719 C 289.34375 121.941406 284.355469 111.859375 290.152344 106.621094 C 292.308594 104.738281 294.058594 104.46875 299.988281 105.140625 C 305.921875 105.949219 307.539062 105.679688 309.289062 103.664062 C 313.332031 99.09375 313.46875 95.464844 309.828125 91.835938 C 306.863281 88.878906 305.382812 88.476562 296.082031 88.476562 C 286.109375 88.476562 285.570312 88.609375 281.523438 93.046875 Z M 281.523438 93.046875 " fill-opacity="1" fill-rule="nonzero"/><path fill="#000000" d="M 422.910156 91.164062 C 420.753906 93.449219 420.484375 96.136719 420.753906 111.59375 C 420.886719 124.761719 421.425781 130.136719 423.042969 132.421875 C 425.46875 136.1875 428.972656 136.320312 433.152344 132.960938 C 436.253906 130.542969 436.386719 129.601562 435.984375 117.371094 L 435.714844 104.46875 L 440.027344 104.871094 C 445.417969 105.410156 446.898438 109.710938 445.957031 121.941406 C 445.148438 132.019531 446.496094 135.515625 451.617188 135.515625 C 458.761719 135.515625 459.300781 134.304688 459.300781 117.101562 C 459.300781 91.972656 456.335938 88.476562 434.902344 88.476562 C 427.085938 88.476562 424.929688 89.015625 422.910156 91.164062 Z M 422.910156 91.164062 " fill-opacity="1" fill-rule="nonzero"/><path fill="#000000" d="M 495.421875 92.105469 C 491.914062 97.347656 491.914062 126.644531 495.421875 131.886719 C 496.632812 133.902344 498.925781 135.515625 500.273438 135.515625 C 505.394531 135.515625 506.472656 131.886719 506.875 112.53125 C 507.414062 95.332031 507.28125 93.988281 504.585938 91.296875 C 500.8125 87.535156 498.25 87.804688 495.421875 92.105469 Z M 495.421875 92.105469 " fill-opacity="1" fill-rule="nonzero"/><path fill="#000000" d="M 517.792969 91.296875 C 515.097656 93.988281 514.964844 95.332031 515.503906 112.53125 C 515.90625 133.632812 516.984375 136.320312 523.859375 134.976562 C 530.328125 133.632812 531.40625 131.078125 531.40625 117.101562 C 531.40625 104.738281 531.40625 104.605469 534.640625 104.605469 C 536.527344 104.605469 538.414062 105.410156 539.089844 106.214844 C 539.628906 107.15625 540.4375 114.011719 540.839844 121.402344 L 541.515625 134.84375 L 545.691406 135.246094 C 548.117188 135.515625 550.816406 134.84375 551.894531 133.632812 C 554.589844 130.945312 556.070312 115.085938 554.453125 106.351562 C 551.488281 91.296875 547.578125 88.476562 529.789062 88.476562 C 522.242188 88.476562 520.085938 89.015625 517.792969 91.296875 Z M 517.792969 91.296875 " fill-opacity="1" fill-rule="nonzero"/><g clip-path="url(#ff69bfa77b)"><path fill="#000000" d="M 232.734375 92.644531 C 230.984375 94.523438 230.039062 98.019531 229.769531 104.335938 C 228.828125 120.867188 233.949219 131.214844 244.460938 133.902344 C 247.5625 134.707031 250.929688 134.976562 251.875 134.574219 C 253.222656 134.035156 253.761719 134.976562 253.761719 137.394531 C 253.761719 142.234375 249.71875 144.117188 243.113281 142.097656 C 239.203125 141.023438 237.316406 141.023438 235.027344 142.097656 C 231.253906 144.25 231.386719 147.070312 235.699219 150.96875 C 242.976562 157.6875 256.320312 154.195312 263.871094 143.710938 L 267.914062 137.933594 L 267.914062 116.699219 C 267.914062 97.75 267.644531 95.195312 265.351562 92.644531 C 263.871094 91.03125 261.441406 89.820312 259.691406 89.820312 C 254.570312 89.820312 253.355469 94.121094 254.433594 108.097656 C 255.511719 121.941406 254.703125 123.285156 247.695312 121.539062 C 244.328125 120.730469 244.328125 120.460938 244.328125 106.621094 C 244.328125 94.121094 244.054688 92.507812 241.765625 91.164062 C 237.855469 89.148438 235.566406 89.550781 232.734375 92.644531 Z M 232.734375 92.644531 " fill-opacity="1" fill-rule="nonzero"/></g><path fill="#4e6ef1" d="M 58.863281 83.476562 C 58.863281 84.261719 59.488281 84.898438 60.273438 84.898438 L 62.496094 84.898438 L 62.496094 86.074219 C 62.496094 86.859375 63.140625 87.503906 63.90625 87.503906 C 64.707031 87.503906 65.34375 86.859375 65.34375 86.074219 L 65.34375 80.542969 C 65.34375 79.339844 65.550781 78.5 65.933594 78.125 C 66.363281 77.675781 67.277344 77.675781 68.242188 77.707031 L 74.136719 77.707031 C 74.9375 77.707031 75.554688 77.066406 75.554688 76.277344 C 75.554688 75.507812 74.9375 74.863281 74.136719 74.863281 L 68.25 74.863281 C 66.894531 74.851562 65.191406 74.839844 63.933594 76.101562 C 62.964844 77.054688 62.496094 78.5 62.496094 80.542969 L 62.496094 82.046875 L 60.273438 82.046875 C 59.488281 82.046875 58.863281 82.695312 58.863281 83.476562 Z M 58.863281 83.476562 " fill-opacity="1" fill-rule="nonzero"/><path fill="#4e6ef1" d="M 54.96875 72.167969 L 57.351562 72.167969 L 57.351562 74.199219 C 57.351562 74.972656 57.984375 75.621094 58.777344 75.621094 C 59.546875 75.621094 60.179688 74.972656 60.179688 74.199219 L 60.179688 67.757812 C 60.179688 66.976562 59.546875 66.335938 58.777344 66.335938 C 57.984375 66.335938 57.351562 66.976562 57.351562 67.757812 L 57.351562 69.320312 L 54.96875 69.320312 C 54.199219 69.320312 53.5625 69.96875 53.5625 70.738281 C 53.5625 71.53125 54.199219 72.167969 54.96875 72.167969 Z M 54.96875 72.167969 " fill-opacity="1" fill-rule="nonzero"/><path fill="#4e6ef1" d="M 61.582031 92.453125 C 61.339844 92.453125 61.132812 92.453125 60.933594 92.453125 L 49.476562 92.453125 C 47.683594 92.453125 46.378906 92.058594 45.640625 91.273438 C 44.433594 89.996094 44.527344 87.746094 44.617188 85.914062 C 44.636719 85.476562 44.652344 85.0625 44.652344 84.703125 C 44.652344 83.910156 44.027344 83.28125 43.253906 83.28125 C 42.453125 83.28125 41.816406 83.910156 41.816406 84.703125 C 41.816406 85.019531 41.800781 85.398438 41.78125 85.796875 C 41.679688 87.898438 41.535156 91.074219 43.5625 93.21875 C 44.878906 94.601562 46.863281 95.292969 49.476562 95.292969 L 60.933594 95.292969 C 61.140625 95.292969 61.378906 95.292969 61.628906 95.292969 C 63.566406 95.265625 66.503906 95.222656 68.066406 96.753906 C 68.882812 97.550781 69.269531 98.71875 69.269531 100.324219 C 69.269531 101.097656 69.914062 101.746094 70.6875 101.746094 C 71.484375 101.746094 72.105469 101.097656 72.105469 100.324219 C 72.105469 97.957031 71.417969 96.074219 70.0625 94.738281 C 67.644531 92.355469 63.84375 92.417969 61.582031 92.453125 Z M 61.582031 92.453125 " fill-opacity="1" fill-rule="nonzero"/><path fill="#4e6ef1" d="M 71.8125 84.558594 C 71.046875 84.558594 70.398438 85.203125 70.398438 85.984375 C 70.398438 86.769531 71.046875 87.410156 71.8125 87.410156 L 75.320312 87.410156 L 75.320312 89.996094 C 75.320312 90.789062 75.945312 91.421875 76.753906 91.421875 C 77.53125 91.421875 78.15625 90.789062 78.15625 89.996094 L 78.15625 87.410156 L 81.761719 87.410156 C 82.546875 87.410156 83.1875 86.769531 83.1875 85.984375 C 83.1875 85.203125 82.546875 84.558594 81.761719 84.558594 Z M 71.8125 84.558594 " fill-opacity="1" fill-rule="nonzero"/><path fill="#4e6ef1" d="M 33.765625 73.636719 L 37.363281 73.636719 C 38.15625 73.636719 38.789062 73 38.789062 72.203125 C 38.789062 71.425781 38.15625 70.796875 37.363281 70.796875 L 33.765625 70.796875 C 32.996094 70.796875 32.363281 71.425781 32.363281 72.203125 C 32.363281 73 32.996094 73.636719 33.765625 73.636719 Z M 33.765625 73.636719 " fill-opacity="1" fill-rule="nonzero"/><g clip-path="url(#0fd76077b4)"><path fill="#4e6ef1" d="M 113.414062 128.878906 L 102.957031 99.308594 C 101.136719 73.234375 79.421875 52.640625 52.882812 52.640625 C 25.148438 52.640625 2.667969 75.121094 2.667969 102.855469 L 2.667969 118.675781 C 2.667969 146.410156 25.148438 168.890625 52.882812 168.890625 C 75.71875 168.890625 94.980469 153.644531 101.078125 132.777344 L 110.65625 132.777344 C 111.605469 132.777344 112.496094 132.316406 113.042969 131.539062 C 113.589844 130.765625 113.730469 129.773438 113.414062 128.878906 Z M 74.660156 101.363281 C 75.230469 104.578125 74.09375 109.792969 63.976562 109.792969 C 59.128906 109.792969 52.308594 109.792969 49.960938 109.792969 C 49.960938 117.453125 38.402344 115.65625 34.34375 115.65625 C 30.277344 115.65625 29.613281 111.296875 30.355469 110.164062 C 17.675781 110.070312 15.890625 96.828125 19.003906 91.050781 C 20.335938 75.335938 36.234375 64.167969 52.050781 64.167969 C 72.859375 64.167969 71.484375 70.980469 73.800781 71.175781 C 79.484375 71.632812 87.246094 78.273438 87.246094 86.027344 C 87.25 93.792969 84.027344 101.363281 74.660156 101.363281 Z M 74.660156 101.363281 " fill-opacity="1" fill-rule="nonzero"/></g><path fill="#4e6ef1" d="M 24.671875 90.023438 L 31.976562 90.023438 C 33.277344 90.023438 34.070312 89.5 34.5 89.058594 C 35.601562 87.941406 35.59375 86.296875 35.566406 85.316406 L 35.566406 80.355469 C 35.566406 79.636719 35.707031 79.101562 35.953125 78.863281 C 36.34375 78.488281 37.265625 78.519531 38.015625 78.554688 C 38.226562 78.554688 38.417969 78.570312 38.597656 78.570312 L 47.890625 78.570312 C 47.890625 78.570312 47.90625 78.554688 47.9375 78.554688 C 49.117188 78.554688 50.796875 78.554688 51.246094 78.996094 C 51.277344 79.03125 51.378906 79.109375 51.378906 79.46875 L 51.378906 87.210938 C 51.378906 88.003906 52.027344 88.640625 52.796875 88.640625 C 53.578125 88.640625 54.214844 88.003906 54.214844 87.210938 L 54.214844 79.46875 C 54.214844 78.210938 53.675781 77.421875 53.246094 76.984375 C 51.925781 75.6875 49.703125 75.695312 47.773438 75.71875 C 47.523438 75.71875 47.289062 75.71875 47.074219 75.71875 C 46.328125 75.71875 46.132812 75.59375 46.132812 75.59375 C 46.0625 75.457031 46.0625 74.933594 46.0625 74.601562 L 46.0625 70.457031 C 46.0625 69.679688 45.441406 69.039062 44.652344 69.039062 C 43.878906 69.039062 43.242188 69.679688 43.242188 70.457031 L 43.242188 74.578125 C 43.226562 74.933594 43.226562 75.328125 43.28125 75.71875 L 38.597656 75.71875 C 38.453125 75.71875 38.296875 75.710938 38.113281 75.710938 C 36.972656 75.664062 35.25 75.613281 33.984375 76.828125 C 33.160156 77.625 32.730469 78.8125 32.730469 80.355469 L 32.730469 85.34375 C 32.730469 85.808594 32.746094 86.785156 32.484375 87.054688 C 32.363281 87.164062 32.078125 87.175781 31.976562 87.175781 L 24.671875 87.175781 C 23.910156 87.175781 23.277344 87.820312 23.277344 88.597656 C 23.277344 89.390625 23.910156 90.023438 24.671875 90.023438 Z M 24.671875 90.023438 " fill-opacity="1" fill-rule="nonzero"/><path fill="#4e6ef1" d="M 26.867188 103.734375 L 23.277344 103.734375 C 22.480469 103.734375 21.839844 104.359375 21.839844 105.144531 C 21.839844 105.933594 22.480469 106.554688 23.277344 106.554688 L 26.867188 106.554688 C 27.660156 106.554688 28.292969 105.933594 28.292969 105.144531 C 28.292969 104.359375 27.660156 103.734375 26.867188 103.734375 Z M 26.867188 103.734375 " fill-opacity="1" fill-rule="nonzero"/><path fill="#4e6ef1" d="M 61.699219 100.027344 L 43.71875 100.027344 C 42.925781 100.027344 42.304688 100.679688 42.304688 101.449219 C 42.304688 102.234375 42.925781 102.871094 43.71875 102.871094 L 53.371094 102.871094 L 53.371094 105.703125 C 53.371094 106.5 54.003906 107.125 54.785156 107.125 C 55.570312 107.125 56.199219 106.5 56.199219 105.703125 L 56.199219 102.871094 L 61.699219 102.871094 C 62.472656 102.871094 63.121094 102.234375 63.121094 101.449219 C 63.121094 100.679688 62.472656 100.027344 61.699219 100.027344 Z M 61.699219 100.027344 " fill-opacity="1" fill-rule="nonzero"/><path fill="#4e6ef1" d="M 38.558594 96.300781 C 38.558594 95.515625 37.917969 94.875 37.136719 94.875 L 27.210938 94.875 C 26.40625 94.875 25.777344 95.515625 25.777344 96.300781 C 25.777344 97.085938 26.40625 97.710938 27.210938 97.710938 L 27.722656 97.710938 L 27.722656 100.027344 C 27.722656 100.828125 28.359375 101.449219 29.140625 101.449219 C 29.925781 101.449219 30.566406 100.828125 30.566406 100.027344 L 30.566406 97.710938 L 37.136719 97.710938 C 37.917969 97.710938 38.558594 97.085938 38.558594 96.300781 Z M 38.558594 96.300781 " fill-opacity="1" fill-rule="nonzero"/><path fill="#4e6ef1" d="M 42.671875 107.039062 L 37.75 107.039062 L 37.75 104.398438 C 37.75 103.59375 37.117188 102.976562 36.332031 102.976562 C 35.539062 102.976562 34.917969 103.59375 34.917969 104.398438 L 34.917969 107.039062 L 34.246094 107.039062 C 33.46875 107.039062 32.828125 107.675781 32.828125 108.464844 C 32.828125 109.246094 33.46875 109.875 34.246094 109.875 L 42.671875 109.875 C 43.453125 109.875 44.089844 109.246094 44.089844 108.464844 C 44.089844 107.675781 43.453125 107.039062 42.671875 107.039062 Z M 42.671875 107.039062 " fill-opacity="1" fill-rule="nonzero"/></svg>